<svg width="34" height="30" viewBox="0 0 34 30" fill="none" xmlns="http://www.w3.org/2000/svg">
<g id="Group">
<path id="Vector" d="M6.79168 27.6392C11.3128 26.4031 15.794 25.1829 20.2708 23.9491C23.3313 23.1061 25.4004 21.1566 26.0953 17.955C26.7636 14.8808 25.7766 12.2927 23.4221 10.2795C22.9264 9.85691 22.3466 9.5388 21.7114 9.10708C23.1786 6.98711 23.4907 4.63311 22.8179 1.99735C24.5794 1.99735 26.2701 1.99735 27.9608 1.99735C29.5232 1.99735 31.0877 2.0178 32.6501 1.99054C33.5663 1.97463 33.9978 2.40408 33.9978 3.32659C33.9978 11.7633 33.9978 20.2 34 28.6367C34 29.6546 33.4335 30 32.535 30C24.4267 29.9977 16.3185 30.0023 8.21019 29.9954C6.9134 29.9954 6.68768 29.6183 6.79168 27.6392Z" fill="#C6F906"/>
<path id="Vector_2" d="M-1.52588e-05 26.1856C-1.52588e-05 23.0113 -1.52588e-05 19.9597 -1.52588e-05 16.8377C3.53629 15.8538 7.05932 14.87 10.5846 13.8952C12.8573 13.2658 15.1322 12.6364 17.4115 12.0343C19.0336 11.6048 20.5207 11.9025 21.7489 13.1181C24.1079 15.4517 23.3024 19.4371 20.1423 20.5505C17.6815 21.4185 15.1255 22.007 12.6072 22.7068C8.44906 23.8611 4.28648 25.004 -1.52588e-05 26.1856Z" fill="#C6F906"/>
<path id="Vector_3" d="M6.75093 11.5842C6.75093 8.68028 6.74208 5.89002 6.75757 3.09975C6.762 2.4249 7.2245 2.14997 7.79545 1.99091C9.96414 1.38651 12.1196 0.734386 14.2971 0.173151C16.8464 -0.483516 19.1103 0.773013 19.8428 3.17246C20.5354 5.44466 19.3559 7.98044 16.9195 8.7689C13.6089 9.83911 10.2164 10.6389 6.75093 11.5842Z" fill="#C6F906"/>
</g>
</svg>
