<svg width="40" height="40" viewBox="0 0 40 40" fill="none" xmlns="http://www.w3.org/2000/svg">
<g id="group">
<mask id="mask0_45_6404" style="mask-type:alpha" maskUnits="userSpaceOnUse" x="0" y="0" width="40" height="40">
<rect id="Bounding box" width="40" height="40" fill="#D9D9D9"/>
</mask>
<g mask="url(#mask0_45_6404)">
<path id="group_2" d="M1.61115 33.3332V29.1665C1.61115 28.2036 1.85883 27.3263 2.35419 26.5346C2.84955 25.743 3.52778 25.148 4.3889 24.7499C6.31484 23.8703 8.11577 23.2291 9.79169 22.8263C11.4676 22.4235 13.1852 22.2221 14.9445 22.2221C16.7037 22.2221 18.4167 22.4235 20.0834 22.8263C21.75 23.2291 23.5463 23.8703 25.4722 24.7499C26.3333 25.148 27.0162 25.743 27.5209 26.5346C28.0255 27.3263 28.2778 28.2036 28.2778 29.1665V33.3332H1.61115ZM31.0556 33.3332V29.0555C31.0556 27.4814 30.6458 26.1318 29.8264 25.0068C29.007 23.8818 27.9074 22.9536 26.5278 22.2221C28.2778 22.4258 29.9259 22.7383 31.4722 23.1596C33.0185 23.5809 34.3241 24.074 35.3889 24.6388C36.3333 25.1758 37.0695 25.817 37.5972 26.5624C38.125 27.3078 38.3889 28.1388 38.3889 29.0555V33.3332H31.0556ZM14.9445 19.9721C13.1111 19.9721 11.588 19.3656 10.375 18.1527C9.16205 16.9397 8.55556 15.4165 8.55556 13.5832C8.55556 11.7499 9.16205 10.2267 10.375 9.0138C11.588 7.80082 13.1111 7.19434 14.9445 7.19434C16.7778 7.19434 18.301 7.80082 19.5139 9.0138C20.7269 10.2267 21.3334 11.7499 21.3334 13.5832C21.3334 15.4165 20.7269 16.9397 19.5139 18.1527C18.301 19.3656 16.7778 19.9721 14.9445 19.9721ZM30.5 13.5832C30.5 15.4165 29.8935 16.9397 28.6806 18.1527C27.4676 19.3656 25.9444 19.9721 24.1111 19.9721C23.8055 19.9721 23.4491 19.9466 23.0416 19.8957C22.6343 19.8448 22.2778 19.7684 21.9722 19.6665C22.6667 18.9073 23.1968 18.0091 23.5625 16.9721C23.9282 15.9351 24.1111 14.8054 24.1111 13.5832C24.1111 12.361 23.9282 11.2499 23.5625 10.2499C23.1968 9.24988 22.6667 8.33321 21.9722 7.49988C22.3056 7.39804 22.662 7.32166 23.0416 7.27071C23.4213 7.21979 23.7778 7.19434 24.1111 7.19434C25.9444 7.19434 27.4676 7.80082 28.6806 9.0138C29.8935 10.2267 30.5 11.7499 30.5 13.5832ZM4.3889 30.5555H25.5V29.1665C25.5 28.7684 25.3866 28.3888 25.1598 28.0277C24.9329 27.6666 24.6482 27.4073 24.3056 27.2499C22.4722 26.4073 20.8472 25.8216 19.4306 25.4929C18.0139 25.1642 16.5185 24.9999 14.9445 24.9999C13.3704 24.9999 11.8704 25.1642 10.4445 25.4929C9.01853 25.8216 7.3889 26.4073 5.55556 27.2499C5.21298 27.4073 4.93288 27.6666 4.71527 28.0277C4.49769 28.3888 4.3889 28.7684 4.3889 29.1665V30.5555ZM14.9445 17.1943C15.9723 17.1943 16.831 16.8494 17.5209 16.1596C18.2107 15.4698 18.5556 14.611 18.5556 13.5832C18.5556 12.5554 18.2107 11.6966 17.5209 11.0068C16.831 10.317 15.9723 9.97209 14.9445 9.97209C13.9167 9.97209 13.0579 10.317 12.3681 11.0068C11.6783 11.6966 11.3334 12.5554 11.3334 13.5832C11.3334 14.611 11.6783 15.4698 12.3681 16.1596C13.0579 16.8494 13.9167 17.1943 14.9445 17.1943Z" fill="#959595"/>
</g>
</g>
</svg>
